# xmcd
#
# Track frame offsets:
#	150
#	11851
#	27617
#	45652
#	58406
#	72082
#	82378
#	96119
#	109011
#	126361
#	140853
#	156439
#
# Disc length: 2277 seconds
#
# Revision: 0
# Processed by: cddbd v1.5.1PL0 Copyright (c) Steve Scherf et al.
# Submitted via: dBpowerAMP V4.0
#
DISCID=ba08e30c
DTITLE=Shady Creek Outlaws - Waylon Grass
DYEAR=1900
DGENRE=Bluegrass
TTITLE0=Good Ole Boys
TTITLE1=I'm A Ramblin' Man
TTITLE2=Good Hearted Woman
TTITLE3=Just To Satisfy Her
TTITLE4=Never Could Toe The Mark
TTITLE5=The Wurlitzer Prize
TTITLE6=Ladies Love Outlaws
TTITLE7=Waymore's Blues
TTITLE8=Lucille
TTITLE9=The Broken Promised Land
TTITLE10=Clyde
TTITLE11=Are You Sure Hank Done It This Way
EXTD=
EXTT0=
EXTT1=
EXTT2=
EXTT3=
EXTT4=
EXTT5=
EXTT6=
EXTT7=
EXTT8=
EXTT9=
EXTT10=
EXTT11=
PLAYORDER=
